<svg
  xmlns="http://www.w3.org/2000/svg"
  width="189.93866mm"
  height="176.22644mm"
  viewBox="0 0 189.93866 176.22644"
  id="Logo">
  <path
  d="m 75.228165,176.06262 c -3.620077,-0.45028 -8.486904,-2.35798 -11.831412,-4.63767 -2.600276,-1.77241 -7.094241,-5.76641 -8.893291,-7.90389 -6.155826,-7.31384 -8.874283,-13.53776 -9.221709,-21.11314 -0.114703,-2.50103 -0.07113,-3.12896 0.224495,-3.23549 0.403625,-0.14543 18.041101,-1.731 19.255253,-1.731 h 0.756376 l 0.14127,3.77032 c 0.196085,5.2333 0.962274,7.35852 3.494356,9.69251 1.660379,1.53049 3.082354,2.13524 5.029982,2.13919 3.09398,0.006 3.32112,-0.17366 15.27969,-12.10559 5.92997,-5.91676 10.781775,-10.87945 10.781775,-11.02821 0,-0.14875 -3.869655,-4.14144 -8.599215,-8.87264 l -8.59921,-8.60217 6.55004,-6.54611 6.55004,-6.546111 17.302075,17.303591 17.30207,17.30358 -17.17872,17.1578 c -9.44829,9.43679 -18.068275,17.83602 -19.155505,18.66496 -6.59429,5.02767 -12.8503,7.07843 -19.18836,6.29007 z M 117.77298,113.82676 C 106.09527,102.14838 96.540775,92.474319 96.540775,92.328849 c 0,-0.14546 11.608575,-11.872584 25.796825,-26.060272 l 25.79681,-25.795798 20.90213,20.900873 20.90213,20.900873 -6.61437,6.614374 -6.61437,6.61437 -12.37215,-12.37006 -12.37215,-12.370051 -3.03727,3.045901 -3.03726,3.045902 10.83425,10.836658 10.83424,10.83666 -0.65055,0.72178 c -1.36081,1.509811 -11.68837,11.733041 -11.85278,11.733041 -0.0949,0 -5.02478,-4.85123 -10.95538,-10.78052 l -10.78293,-10.780511 -3.37232,3.37232 -3.37232,3.37232 12.76499,12.767021 c 7.02074,7.02186 12.76459,12.88563 12.7641,13.03059 -7.5e-4,0.22657 -12.79095,13.09586 -13.01536,13.09586 -0.045,0 -9.63635,-9.55504 -21.31406,-21.23342 z m -84.203038,13.64135 c -3.962041,-0.42382 -8.861775,-1.8982 -12.552168,-3.7771 C 14.043405,120.14014 7.190499,113.26638 3.692522,106.31302 1.15886,101.27655 0.23980401,97.636579 0.04093701,91.850709 c -0.165729,-4.82172 0.156381,-7.80445 1.24830999,-11.559276 2.204219,-7.579682 5.666988,-13.308748 11.885029,-19.663492 7.0423,-7.197124 14.320102,-11.527342 22.615182,-13.455804 1.749358,-0.406695 3.626479,-0.59446 6.842464,-0.684438 2.437474,-0.0682 4.431455,-0.08049 4.431069,-0.02732 -3.86e-4,0.05317 -0.298042,4.380131 -0.661458,9.615463 -0.363416,5.235333 -0.660757,9.908536 -0.660757,10.384896 v 0.866109 l -2.182813,0.002 c -5.482151,0.005 -10.141856,1.634832 -13.89999,4.861761 -6.894503,5.919978 -8.7873,13.830751 -5.045919,21.088941 2.682563,5.20411 8.050394,9.620821 13.312956,10.954051 2.012259,0.50978 5.349547,0.50525 7.536594,-0.0102 4.997219,-1.17786 10.367386,-5.872781 13.062402,-11.419931 l 0.563047,-1.15892 -6.541654,-6.52613 -6.541654,-6.526139 7.539308,-7.550925 7.539308,-7.550925 10.896467,10.894744 10.896467,10.894745 -0.33226,1.54067 c -0.55256,2.56217 -2.11351,6.92411 -3.60308,10.06857 -4.930494,10.408121 -12.510574,19.270871 -21.028346,24.586681 -7.409497,4.62415 -16.412538,6.84047 -24.341667,5.99231 z M 67.103934,62.628552 41.504572,37.028171 55.462778,23.119254 C 63.139792,15.469349 70.016297,8.7343732 70.743901,8.1526412 c 4.870354,-3.893937 9.251144,-6.158057 14.552084,-7.52094 3.23534,-0.831814 8.77726,-0.843905 11.82647,-0.0258 8.769795,2.352934 16.548725,9.8370808 19.160575,18.4344938 0.65684,2.162132 0.7227,2.75862 0.71576,6.482292 -0.006,3.243393 -0.11982,4.534132 -0.54401,6.171963 -0.37637,1.45317 -0.44711,2.099842 -0.23716,2.167869 0.28939,0.09377 1.80897,0.376023 17.7617,3.299177 4.07459,0.74662 7.61787,1.439607 7.87396,1.53997 0.37124,0.14549 -1.40659,2.053879 -8.77082,9.414907 l -9.23644,9.232429 -10.80835,-2.041928 -10.80835,-2.041927 -2.315105,2.31749 c -1.27331,1.274619 -2.3151,2.385605 -2.3151,2.468857 0,0.08325 2.857635,3.007139 6.350295,6.497526 l 6.35029,6.346158 -8.66389,8.666879 c -4.765145,4.766782 -8.724335,8.666872 -8.798205,8.666872 -0.0739,0 -11.65402,-11.520165 -25.733671,-25.600375 z M 88.643085,40.67008 c 4.99417,-5.08407 5.65265,-6.188105 5.64155,-9.458854 -0.008,-2.433668 -0.50288,-3.639128 -2.28775,-5.575486 -1.60035,-1.736165 -3.84166,-2.758889 -6.04615,-2.758889 -1.49667,0 -2.05927,0.143271 -3.59576,0.915704 -1.48741,0.747754 -2.57317,1.669863 -5.91983,5.027582 l -4.098337,4.111878 5.948217,5.952626 c 3.27152,3.273945 6.01939,5.952626 6.10639,5.952626 0.087,0 2.00024,-1.875234 4.25167,-4.167187 z"
  id="path1"/>
</svg>
